ISO-10303-21;
HEADER;
FILE_DESCRIPTION (( 'STEP AP214' ),
    '1' );
FILE_NAME ('ZEPHYR-X1000 - END CAP.STEP',
    '2026-07-07T02:10:13',
    ( '' ),
    ( '' ),
    'SwSTEP 2.0',
    'SolidWorks 2020',
    '' );
FILE_SCHEMA (( 'AUTOMOTIVE_DESIGN' ));
ENDSEC;

DATA;
#1 = DIRECTION ( 'NONE',  ( -0.000000000000000000, -1.000000000000000000, -0.000000000000000000 ) ) ;
#2 = APPLICATION_CONTEXT ( 'automotive_design' ) ;
#3 = CIRCLE ( 'NONE', #85, 3.169763870759772395 ) ;
#4 = ADVANCED_FACE ( 'NONE', ( #86, #127 ), #56, .T. ) ;
#5 = CARTESIAN_POINT ( 'NONE',  ( 0.000000000000000000, 0.000000000000000000, -3.169763870759772395 ) ) ;
#6 = ORIENTED_EDGE ( 'NONE', *, *, #105, .F. ) ;
#7 = CARTESIAN_POINT ( 'NONE',  ( 0.000000000000000000, 0.000000000000000000, 0.000000000000000000 ) ) ;
#8 = CYLINDRICAL_SURFACE ( 'NONE', #232, 2.000000000000000000 ) ;
#9 = DIRECTION ( 'NONE',  ( -0.000000000000000000, 1.000000000000000000, -0.000000000000000000 ) ) ;
#10 = EDGE_CURVE ( 'NONE', #142, #264, #246, .T. ) ;
#11 = AXIS2_PLACEMENT_3D ( 'NONE', #375, #9, #371 ) ;
#12 = PLANE ( 'NONE',  #46 ) ;
#13 = CLOSED_SHELL ( 'NONE', ( #311, #333, #284, #36, #304, #118, #43, #4, #189, #233, #254, #72, #283 ) ) ;
#14 = ORIENTED_EDGE ( 'NONE', *, *, #104, .F. ) ;
#15 = DIRECTION ( 'NONE',  ( 0.000000000000000000, 0.000000000000000000, -1.000000000000000000 ) ) ;
#16 = EDGE_LOOP ( 'NONE', ( #197, #292 ) ) ;
#17 = DIRECTION ( 'NONE',  ( -0.000000000000000000, -1.000000000000000000, -0.000000000000000000 ) ) ;
#18 = EDGE_LOOP ( 'NONE', ( #379, #305, #45, #226 ) ) ;
#19 = EDGE_CURVE ( 'NONE', #251, #148, #209, .T. ) ;
#20 = ORIENTED_EDGE ( 'NONE', *, *, #149, .T. ) ;
#21 = DIRECTION ( 'NONE',  ( -0.000000000000000000, -1.000000000000000000, -0.000000000000000000 ) ) ;
#22 = AXIS2_PLACEMENT_3D ( 'NONE', #114, #137, #293 ) ;
#23 = VERTEX_POINT ( 'NONE', #210 ) ;
#24 = LENGTH_MEASURE_WITH_UNIT ( LENGTH_MEASURE( 0.02539999999999999897 ), #237 );
#25 = CARTESIAN_POINT ( 'NONE',  ( 0.000000000000000000, 0.000000000000000000, -1.250000000000000000 ) ) ;
#26 =( NAMED_UNIT ( * ) PLANE_ANGLE_UNIT ( ) SI_UNIT ( $, .RADIAN. ) );
#27 = CARTESIAN_POINT ( 'NONE',  ( 0.000000000000000000, 0.4999999999999997780, 0.000000000000000000 ) ) ;
#28 = FACE_OUTER_BOUND ( 'NONE', #259, .T. ) ;
#29 = AXIS2_PLACEMENT_3D ( 'NONE', #109, #318, #227 ) ;
#30 = CIRCLE ( 'NONE', #240, 2.000000000000000000 ) ;
#31 = FILL_AREA_STYLE_COLOUR ( '', #269 ) ;
#32 = DIRECTION ( 'NONE',  ( 0.000000000000000000, 1.000000000000000000, 0.000000000000000000 ) ) ;
#33 = PRESENTATION_STYLE_ASSIGNMENT (( #298 ) ) ;
#34 = VERTEX_POINT ( 'NONE', #300 ) ;
#35 = EDGE_CURVE ( 'NONE', #351, #62, #152, .T. ) ;
#36 = ADVANCED_FACE ( 'NONE', ( #186 ), #265, .T. ) ;
#37 = DIRECTION ( 'NONE',  ( -0.000000000000000000, -1.000000000000000000, -0.000000000000000000 ) ) ;
#38 = AXIS2_PLACEMENT_3D ( 'NONE', #147, #381, #343 ) ;
#39 = PLANE ( 'NONE',  #70 ) ;
#40 = DIRECTION ( 'NONE',  ( 0.000000000000000000, 0.000000000000000000, -1.000000000000000000 ) ) ;
#41 = FACE_OUTER_BOUND ( 'NONE', #82, .T. ) ;
#42 = CARTESIAN_POINT ( 'NONE',  ( 0.000000000000000000, 0.4999999999999997780, 0.000000000000000000 ) ) ;
#43 = ADVANCED_FACE ( 'NONE', ( #238 ), #211, .T. ) ;
#44 = CARTESIAN_POINT ( 'NONE',  ( 1.597308480188627922, -0.5000000000000000000, -0.4826761002705776127 ) ) ;
#45 = ORIENTED_EDGE ( 'NONE', *, *, #362, .T. ) ;
#46 = AXIS2_PLACEMENT_3D ( 'NONE', #73, #255, #116 ) ;
#47 = CARTESIAN_POINT ( 'NONE',  ( 0.000000000000000000, 0.000000000000000000, -3.169763870759772395 ) ) ;
#48 = ORIENTED_EDGE ( 'NONE', *, *, #179, .F. ) ;
#49 = CYLINDRICAL_SURFACE ( 'NONE', #60, 3.169763870759772395 ) ;
#50 = PRODUCT_DEFINITION ( 'UNKNOWN', '', #77, #172 ) ;
#51 = ORIENTED_EDGE ( 'NONE', *, *, #367, .F. ) ;
#52 = DIRECTION ( 'NONE',  ( -0.000000000000000000, -1.000000000000000000, -0.000000000000000000 ) ) ;
#53 = VERTEX_POINT ( 'NONE', #299 ) ;
#54 = EDGE_LOOP ( 'NONE', ( #176, #92, #344, #48 ) ) ;
#55 = LENGTH_MEASURE_WITH_UNIT ( LENGTH_MEASURE( 0.02539999999999999897 ), #119 );
#56 = PLANE ( 'NONE',  #220 ) ;
#57 =( NAMED_UNIT ( * ) PLANE_ANGLE_UNIT ( ) SI_UNIT ( $, .RADIAN. ) );
#58 = DIRECTION ( 'NONE',  ( -0.000000000000000000, 1.000000000000000000, -0.000000000000000000 ) ) ;
#59 = CARTESIAN_POINT ( 'NONE',  ( 1.250000000000000000, 0.1249999999999997641, 0.000000000000000000 ) ) ;
#60 = AXIS2_PLACEMENT_3D ( 'NONE', #196, #195, #372 ) ;
#61 =( NAMED_UNIT ( * ) SI_UNIT ( $, .STERADIAN. ) SOLID_ANGLE_UNIT ( ) );
#62 = VERTEX_POINT ( 'NONE', #241 ) ;
#63 = EDGE_CURVE ( 'NONE', #53, #374, #216, .T. ) ;
#64 = SURFACE_STYLE_USAGE ( .BOTH. , #364 ) ;
#65 = DIRECTION ( 'NONE',  ( 0.000000000000000000, 1.000000000000000000, 0.000000000000000000 ) ) ;
#66 = VECTOR ( 'NONE', #167, 39.37007874015748143 ) ;
#67 = VECTOR ( 'NONE', #268, 39.37007874015748143 ) ;
#68 = PRESENTATION_STYLE_ASSIGNMENT (( #64 ) ) ;
#69 = DIRECTION ( 'NONE',  ( 0.000000000000000000, 0.000000000000000000, -1.000000000000000000 ) ) ;
#70 = AXIS2_PLACEMENT_3D ( 'NONE', #162, #285, #224 ) ;
#71 = FACE_OUTER_BOUND ( 'NONE', #290, .T. ) ;
#72 = ADVANCED_FACE ( 'NONE', ( #28 ), #303, .T. ) ;
#73 = CARTESIAN_POINT ( 'NONE',  ( 1.597308480188627922, -0.5000000000000000000, 0.000000000000000000 ) ) ;
#74 = ORIENTED_EDGE ( 'NONE', *, *, #367, .T. ) ;
#75 = DIRECTION ( 'NONE',  ( -0.000000000000000000, -1.000000000000000000, -0.000000000000000000 ) ) ;
#76 = VERTEX_POINT ( 'NONE', #150 ) ;
#77 = PRODUCT_DEFINITION_FORMATION_WITH_SPECIFIED_SOURCE ( 'ANY', '', #276, .NOT_KNOWN. ) ;
#78 = FACE_OUTER_BOUND ( 'NONE', #117, .T. ) ;
#79 = AXIS2_PLACEMENT_3D ( 'NONE', #153, #272, #89 ) ;
#80 = EDGE_LOOP ( 'NONE', ( #257, #261 ) ) ;
#81 = FACE_BOUND ( 'NONE', #16, .T. ) ;
#82 = EDGE_LOOP ( 'NONE', ( #380, #346, #314, #205 ) ) ;
#83 = EDGE_LOOP ( 'NONE', ( #235, #236, #139, #14 ) ) ;
#84 =( NAMED_UNIT ( * ) SI_UNIT ( $, .STERADIAN. ) SOLID_ANGLE_UNIT ( ) );
#85 = AXIS2_PLACEMENT_3D ( 'NONE', #42, #52, #15 ) ;
#86 = FACE_BOUND ( 'NONE', #115, .T. ) ;
#87 = EDGE_CURVE ( 'NONE', #53, #251, #270, .T. ) ;
#88 = ORIENTED_EDGE ( 'NONE', *, *, #324, .F. ) ;
#89 = DIRECTION ( 'NONE',  ( 0.000000000000000000, 0.000000000000000000, -1.000000000000000000 ) ) ;
#90 = EDGE_CURVE ( 'NONE', #112, #376, #30, .T. ) ;
#91 = APPLICATION_PROTOCOL_DEFINITION ( 'draft international standard', 'automotive_design', 1998, #342 ) ;
#92 = ORIENTED_EDGE ( 'NONE', *, *, #244, .T. ) ;
#93 = CIRCLE ( 'NONE', #360, 0.4826761002705776127 ) ;
#94 = DIRECTION ( 'NONE',  ( 0.000000000000000000, 0.000000000000000000, -1.000000000000000000 ) ) ;
#95 = PRODUCT_DEFINITION_SHAPE ( 'NONE', 'NONE',  #50 ) ;
#96 = LINE ( 'NONE', #134, #181 ) ;
#97 = FACE_BOUND ( 'NONE', #331, .T. ) ;
#98 = VECTOR ( 'NONE', #258, 39.37007874015748143 ) ;
#99 = MECHANICAL_DESIGN_GEOMETRIC_PRESENTATION_REPRESENTATION (  '', ( #121 ), #199 ) ;
#100 = AXIS2_PLACEMENT_3D ( 'NONE', #221, #65, #161 ) ;
#101 = CARTESIAN_POINT ( 'NONE',  ( 1.597308480188627922, 0.000000000000000000, 0.000000000000000000 ) ) ;
#102 = ORIENTED_EDGE ( 'NONE', *, *, #87, .F. ) ;
#103 = DIRECTION ( 'NONE',  ( -0.000000000000000000, 1.000000000000000000, -0.000000000000000000 ) ) ;
#104 = EDGE_CURVE ( 'NONE', #112, #62, #182, .T. ) ;
#105 = EDGE_CURVE ( 'NONE', #374, #148, #387, .T. ) ;
#106 = DIRECTION ( 'NONE',  ( 0.000000000000000000, 0.000000000000000000, -1.000000000000000000 ) ) ;
#107 = CIRCLE ( 'NONE', #22, 0.4826761002705776127 ) ;
#108 = PLANE ( 'NONE',  #38 ) ;
#109 = CARTESIAN_POINT ( 'NONE',  ( 1.597308480188627922, -0.5000000000000000000, 0.000000000000000000 ) ) ;
#110 = ORIENTED_EDGE ( 'NONE', *, *, #19, .T. ) ;
#111 = CARTESIAN_POINT ( 'NONE',  ( 0.000000000000000000, 0.000000000000000000, 0.000000000000000000 ) ) ;
#112 = VERTEX_POINT ( 'NONE', #151 ) ;
#113 = AXIS2_PLACEMENT_3D ( 'NONE', #143, #341, #201 ) ;
#114 = CARTESIAN_POINT ( 'NONE',  ( 1.597308480188627922, 0.000000000000000000, 0.000000000000000000 ) ) ;
#115 = EDGE_LOOP ( 'NONE', ( #366, #198 ) ) ;
#116 = DIRECTION ( 'NONE',  ( 0.000000000000000000, -0.000000000000000000, -1.000000000000000000 ) ) ;
#117 = EDGE_LOOP ( 'NONE', ( #184, #178 ) ) ;
#118 = ADVANCED_FACE ( 'NONE', ( #385 ), #188, .T. ) ;
#119 =( LENGTH_UNIT ( ) NAMED_UNIT ( * ) SI_UNIT ( $, .METRE. ) );
#120 = DIRECTION ( 'NONE',  ( -0.000000000000000000, -1.000000000000000000, -0.000000000000000000 ) ) ;
#121 = STYLED_ITEM ( 'NONE', ( #33 ), #296 ) ;
#122 = AXIS2_PLACEMENT_3D ( 'NONE', #388, #1, #94 ) ;
#123 = DIRECTION ( 'NONE',  ( 0.000000000000000000, -0.000000000000000000, 1.000000000000000000 ) ) ;
#124 = DIRECTION ( 'NONE',  ( -0.000000000000000000, -1.000000000000000000, -0.000000000000000000 ) ) ;
#125 = SHAPE_DEFINITION_REPRESENTATION ( #95, #296 ) ;
#126 = DIRECTION ( 'NONE',  ( 0.000000000000000000, 0.000000000000000000, -1.000000000000000000 ) ) ;
#127 = FACE_OUTER_BOUND ( 'NONE', #319, .T. ) ;
#128 = MANIFOLD_SOLID_BREP ( 'Boss-Extrude1', #13 ) ;
#129 = CARTESIAN_POINT ( 'NONE',  ( 0.000000000000000000, 0.4999999999999997780, 0.000000000000000000 ) ) ;
#130 = DIRECTION ( 'NONE',  ( -0.000000000000000000, -1.000000000000000000, -0.000000000000000000 ) ) ;
#131 = DIRECTION ( 'NONE',  ( 0.000000000000000000, 0.000000000000000000, -1.000000000000000000 ) ) ;
#132 = AXIS2_PLACEMENT_3D ( 'NONE', #7, #365, #369 ) ;
#133 = VERTEX_POINT ( 'NONE', #309 ) ;
#134 = CARTESIAN_POINT ( 'NONE',  ( 1.597308480188627922, -0.5000000000000000000, 0.4826761002705776127 ) ) ;
#135 = DIRECTION ( 'NONE',  ( 0.000000000000000000, -1.000000000000000000, 0.000000000000000000 ) ) ;
#136 = LINE ( 'NONE', #313, #245 ) ;
#137 = DIRECTION ( 'NONE',  ( 0.000000000000000000, -1.000000000000000000, 0.000000000000000000 ) ) ;
#138 = UNCERTAINTY_MEASURE_WITH_UNIT (LENGTH_MEASURE( 1.000000000000000082E-05 ), #322, 'distance_accuracy_value', 'NONE');
#139 = ORIENTED_EDGE ( 'NONE', *, *, #35, .T. ) ;
#140 = DIMENSIONAL_EXPONENTS ( 1.000000000000000000, 0.000000000000000000, 0.000000000000000000, 0.000000000000000000, 0.000000000000000000, 0.000000000000000000, 0.000000000000000000 ) ;
#141 = DIRECTION ( 'NONE',  ( -0.000000000000000000, -1.000000000000000000, -0.000000000000000000 ) ) ;
#142 = VERTEX_POINT ( 'NONE', #192 ) ;
#143 = CARTESIAN_POINT ( 'NONE',  ( 0.000000000000000000, 0.000000000000000000, 0.000000000000000000 ) ) ;
#144 = VERTEX_POINT ( 'NONE', #5 ) ;
#145 = ORIENTED_EDGE ( 'NONE', *, *, #244, .F. ) ;
#146 = CIRCLE ( 'NONE', #325, 2.000000000000000000 ) ;
#147 = CARTESIAN_POINT ( 'NONE',  ( 3.169763870759772395, 0.000000000000000000, 0.000000000000000000 ) ) ;
#148 = VERTEX_POINT ( 'NONE', #282 ) ;
#149 = EDGE_CURVE ( 'NONE', #264, #144, #277, .T. ) ;
#150 = CARTESIAN_POINT ( 'NONE',  ( 1.597308480188627922, -0.5000000000000000000, 0.4826761002705776127 ) ) ;
#151 = CARTESIAN_POINT ( 'NONE',  ( 0.000000000000000000, 0.4999999999999997780, -2.000000000000000000 ) ) ;
#152 = CIRCLE ( 'NONE', #200, 2.000000000000000000 ) ;
#153 = CARTESIAN_POINT ( 'NONE',  ( 0.000000000000000000, 0.4999999999999997780, 0.000000000000000000 ) ) ;
#154 = SURFACE_STYLE_FILL_AREA ( #213 ) ;
#155 = CARTESIAN_POINT ( 'NONE',  ( 3.881841178378879370E-16, 0.000000000000000000, 3.169763870759772395 ) ) ;
#156 = DIRECTION ( 'NONE',  ( 0.000000000000000000, 0.000000000000000000, 1.000000000000000000 ) ) ;
#157 = DIRECTION ( 'NONE',  ( -0.000000000000000000, -1.000000000000000000, -0.000000000000000000 ) ) ;
#158 = DIRECTION ( 'NONE',  ( -0.000000000000000000, -1.000000000000000000, -0.000000000000000000 ) ) ;
#159 = CIRCLE ( 'NONE', #301, 1.250000000000000000 ) ;
#160 = EDGE_CURVE ( 'NONE', #148, #374, #334, .T. ) ;
#161 = DIRECTION ( 'NONE',  ( 0.000000000000000000, -0.000000000000000000, 1.000000000000000000 ) ) ;
#162 = CARTESIAN_POINT ( 'NONE',  ( 2.000000000000000000, 0.4999999999999997780, 0.000000000000000000 ) ) ;
#163 = EDGE_CURVE ( 'NONE', #62, #351, #146, .T. ) ;
#164 = AXIS2_PLACEMENT_3D ( 'NONE', #336, #37, #40 ) ;
#165 = LENGTH_MEASURE_WITH_UNIT ( LENGTH_MEASURE( 0.02539999999999999897 ), #250 );
#166 = FACE_OUTER_BOUND ( 'NONE', #83, .T. ) ;
#167 = DIRECTION ( 'NONE',  ( -0.000000000000000000, 1.000000000000000000, -0.000000000000000000 ) ) ;
#168 = EDGE_LOOP ( 'NONE', ( #348, #110, #6, #382 ) ) ;
#169 = PRESENTATION_LAYER_ASSIGNMENT (  '', '', ( #121 ) ) ;
#170 = AXIS2_PLACEMENT_3D ( 'NONE', #243, #120, #354 ) ;
#171 = CYLINDRICAL_SURFACE ( 'NONE', #11, 0.4826761002705776127 ) ;
#172 = PRODUCT_DEFINITION_CONTEXT ( 'detailed design', #2, 'design' ) ;
#173 = DIMENSIONAL_EXPONENTS ( 1.000000000000000000, 0.000000000000000000, 0.000000000000000000, 0.000000000000000000, 0.000000000000000000, 0.000000000000000000, 0.000000000000000000 ) ;
#174 = ORIENTED_EDGE ( 'NONE', *, *, #362, .F. ) ;
#175 = CARTESIAN_POINT ( 'NONE',  ( 0.000000000000000000, 0.000000000000000000, 0.000000000000000000 ) ) ;
#176 = ORIENTED_EDGE ( 'NONE', *, *, #352, .F. ) ;
#177 = CARTESIAN_POINT ( 'NONE',  ( 1.530808498934191571E-16, 0.4999999999999997780, 1.250000000000000000 ) ) ;
#178 = ORIENTED_EDGE ( 'NONE', *, *, #352, .T. ) ;
#179 = EDGE_CURVE ( 'NONE', #76, #202, #96, .T. ) ;
#180 = EDGE_CURVE ( 'NONE', #142, #133, #219, .T. ) ;
#181 = VECTOR ( 'NONE', #103, 39.37007874015748143 ) ;
#182 = LINE ( 'NONE', #329, #288 ) ;
#183 = EDGE_LOOP ( 'NONE', ( #102, #88 ) ) ;
#184 = ORIENTED_EDGE ( 'NONE', *, *, #225, .T. ) ;
#185 = AXIS2_PLACEMENT_3D ( 'NONE', #175, #75, #350 ) ;
#186 = FACE_OUTER_BOUND ( 'NONE', #168, .T. ) ;
#187 = DIRECTION ( 'NONE',  ( -0.000000000000000000, -1.000000000000000000, -0.000000000000000000 ) ) ;
#188 = PLANE ( 'NONE',  #100 ) ;
#189 = ADVANCED_FACE ( 'NONE', ( #41 ), #8, .F. ) ;
#190 = FILL_AREA_STYLE_COLOUR ( '', #370 ) ;
#191 = AXIS2_PLACEMENT_3D ( 'NONE', #247, #363, #248 ) ;
#192 = CARTESIAN_POINT ( 'NONE',  ( 3.881841178378879370E-16, 0.4999999999999997780, 3.169763870759772395 ) ) ;
#193 =( NAMED_UNIT ( * ) PLANE_ANGLE_UNIT ( ) SI_UNIT ( $, .RADIAN. ) );
#194 = CIRCLE ( 'NONE', #191, 0.4826761002705776127 ) ;
#195 = DIRECTION ( 'NONE',  ( -0.000000000000000000, -1.000000000000000000, -0.000000000000000000 ) ) ;
#196 = CARTESIAN_POINT ( 'NONE',  ( 0.000000000000000000, 0.000000000000000000, 0.000000000000000000 ) ) ;
#197 = ORIENTED_EDGE ( 'NONE', *, *, #273, .F. ) ;
#198 = ORIENTED_EDGE ( 'NONE', *, *, #160, .T. ) ;
#199 =( GEOMETRIC_REPRESENTATION_CONTEXT ( 3 ) GLOBAL_UNCERTAINTY_ASSIGNED_CONTEXT ( ( #138 ) ) GLOBAL_UNIT_ASSIGNED_CONTEXT ( ( #322, #57, #84 ) ) REPRESENTATION_CONTEXT ( 'NONE', 'WORKASPACE' ) );
#200 = AXIS2_PLACEMENT_3D ( 'NONE', #361, #157, #328 ) ;
#201 = DIRECTION ( 'NONE',  ( 0.000000000000000000, 0.000000000000000000, -1.000000000000000000 ) ) ;
#202 = VERTEX_POINT ( 'NONE', #278 ) ;
#203 = CYLINDRICAL_SURFACE ( 'NONE', #113, 2.000000000000000000 ) ;
#204 = EDGE_CURVE ( 'NONE', #23, #202, #93, .T. ) ;
#205 = ORIENTED_EDGE ( 'NONE', *, *, #163, .T. ) ;
#206 = ORIENTED_EDGE ( 'NONE', *, *, #35, .F. ) ;
#207 = STYLED_ITEM ( 'NONE', ( #68 ), #128 ) ;
#208 = CARTESIAN_POINT ( 'NONE',  ( 0.000000000000000000, 0.000000000000000000, 0.000000000000000000 ) ) ;
#209 = LINE ( 'NONE', #271, #349 ) ;
#210 = CARTESIAN_POINT ( 'NONE',  ( 1.597308480188627922, 0.000000000000000000, -0.4826761002705776127 ) ) ;
#211 = CYLINDRICAL_SURFACE ( 'NONE', #122, 1.250000000000000000 ) ;
#212 = PRESENTATION_LAYER_ASSIGNMENT (  '', '', ( #207 ) ) ;
#213 = FILL_AREA_STYLE ('',( #31 ) ) ;
#214 = ORIENTED_EDGE ( 'NONE', *, *, #324, .T. ) ;
#215 = EDGE_CURVE ( 'NONE', #376, #112, #281, .T. ) ;
#216 = LINE ( 'NONE', #25, #67 ) ;
#217 = PRODUCT_RELATED_PRODUCT_CATEGORY ( 'part', '', ( #276 ) ) ;
#218 = FACE_OUTER_BOUND ( 'NONE', #80, .T. ) ;
#219 = CIRCLE ( 'NONE', #223, 3.169763870759772395 ) ;
#220 = AXIS2_PLACEMENT_3D ( 'NONE', #59, #32, #123 ) ;
#221 = CARTESIAN_POINT ( 'NONE',  ( 0.000000000000000000, 0.4999999999999997780, 0.000000000000000000 ) ) ;
#222 = DIRECTION ( 'NONE',  ( 0.000000000000000000, 0.000000000000000000, -1.000000000000000000 ) ) ;
#223 = AXIS2_PLACEMENT_3D ( 'NONE', #339, #130, #69 ) ;
#224 = DIRECTION ( 'NONE',  ( 0.000000000000000000, -0.000000000000000000, 1.000000000000000000 ) ) ;
#225 = EDGE_CURVE ( 'NONE', #76, #34, #194, .T. ) ;
#226 = ORIENTED_EDGE ( 'NONE', *, *, #149, .F. ) ;
#227 = DIRECTION ( 'NONE',  ( 0.000000000000000000, 0.000000000000000000, -1.000000000000000000 ) ) ;
#228 = ORIENTED_EDGE ( 'NONE', *, *, #19, .F. ) ;
#229 = DIMENSIONAL_EXPONENTS ( 1.000000000000000000, 0.000000000000000000, 0.000000000000000000, 0.000000000000000000, 0.000000000000000000, 0.000000000000000000, 0.000000000000000000 ) ;
#230 = FACE_OUTER_BOUND ( 'NONE', #54, .T. ) ;
#231 = ORIENTED_EDGE ( 'NONE', *, *, #63, .T. ) ;
#232 = AXIS2_PLACEMENT_3D ( 'NONE', #310, #308, #131 ) ;
#233 = ADVANCED_FACE ( 'NONE', ( #97, #218 ), #39, .T. ) ;
#234 = CARTESIAN_POINT ( 'NONE',  ( 2.449293598294706414E-16, 0.4999999999999997780, 2.000000000000000000 ) ) ;
#235 = ORIENTED_EDGE ( 'NONE', *, *, #215, .F. ) ;
#236 = ORIENTED_EDGE ( 'NONE', *, *, #338, .T. ) ;
#237 =( LENGTH_UNIT ( ) NAMED_UNIT ( * ) SI_UNIT ( $, .METRE. ) );
#238 = FACE_OUTER_BOUND ( 'NONE', #262, .T. ) ;
#239 =( GEOMETRIC_REPRESENTATION_CONTEXT ( 3 ) GLOBAL_UNCERTAINTY_ASSIGNED_CONTEXT ( ( #315 ) ) GLOBAL_UNIT_ASSIGNED_CONTEXT ( ( #384, #26, #61 ) ) REPRESENTATION_CONTEXT ( 'NONE', 'WORKASPACE' ) );
#240 = AXIS2_PLACEMENT_3D ( 'NONE', #27, #124, #126 ) ;
#241 = CARTESIAN_POINT ( 'NONE',  ( 0.000000000000000000, 0.1249999999999997641, -2.000000000000000000 ) ) ;
#242 = DIRECTION ( 'NONE',  ( -0.000000000000000000, -1.000000000000000000, -0.000000000000000000 ) ) ;
#243 = CARTESIAN_POINT ( 'NONE',  ( 0.000000000000000000, 0.1249999999999997641, 0.000000000000000000 ) ) ;
#244 = EDGE_CURVE ( 'NONE', #34, #23, #312, .T. ) ;
#245 = VECTOR ( 'NONE', #141, 39.37007874015748143 ) ;
#246 = LINE ( 'NONE', #155, #302 ) ;
#247 = CARTESIAN_POINT ( 'NONE',  ( 1.597308480188627922, -0.5000000000000000000, 0.000000000000000000 ) ) ;
#248 = DIRECTION ( 'NONE',  ( 0.000000000000000000, 0.000000000000000000, -1.000000000000000000 ) ) ;
#249 = AXIS2_PLACEMENT_3D ( 'NONE', #208, #156, #274 ) ;
#250 =( LENGTH_UNIT ( ) NAMED_UNIT ( * ) SI_UNIT ( $, .METRE. ) );
#251 = VERTEX_POINT ( 'NONE', #177 ) ;
#252 = DIRECTION ( 'NONE',  ( -0.000000000000000000, -1.000000000000000000, -0.000000000000000000 ) ) ;
#253 =( NAMED_UNIT ( * ) SI_UNIT ( $, .STERADIAN. ) SOLID_ANGLE_UNIT ( ) );
#254 = ADVANCED_FACE ( 'NONE', ( #347 ), #256, .T. ) ;
#255 = DIRECTION ( 'NONE',  ( 0.000000000000000000, -1.000000000000000000, 0.000000000000000000 ) ) ;
#256 = CYLINDRICAL_SURFACE ( 'NONE', #185, 3.169763870759772395 ) ;
#257 = ORIENTED_EDGE ( 'NONE', *, *, #266, .F. ) ;
#258 = DIRECTION ( 'NONE',  ( -0.000000000000000000, -1.000000000000000000, -0.000000000000000000 ) ) ;
#259 = EDGE_LOOP ( 'NONE', ( #145, #280, #323, #330 ) ) ;
#260 = DIRECTION ( 'NONE',  ( 0.000000000000000000, 0.000000000000000000, -1.000000000000000000 ) ) ;
#261 = ORIENTED_EDGE ( 'NONE', *, *, #180, .F. ) ;
#262 = EDGE_LOOP ( 'NONE', ( #228, #214, #231, #321 ) ) ;
#263 = DIRECTION ( 'NONE',  ( 0.000000000000000000, 0.000000000000000000, -1.000000000000000000 ) ) ;
#264 = VERTEX_POINT ( 'NONE', #291 ) ;
#265 = CYLINDRICAL_SURFACE ( 'NONE', #317, 1.250000000000000000 ) ;
#266 = EDGE_CURVE ( 'NONE', #133, #142, #3, .T. ) ;
#267 = APPLICATION_PROTOCOL_DEFINITION ( 'draft international standard', 'automotive_design', 1998, #2 ) ;
#268 = DIRECTION ( 'NONE',  ( -0.000000000000000000, -1.000000000000000000, -0.000000000000000000 ) ) ;
#269 = COLOUR_RGB ( '',0.7921568627450980005, 0.8196078431372548767, 0.9333333333333333481 ) ;
#270 = CIRCLE ( 'NONE', #79, 1.250000000000000000 ) ;
#271 = CARTESIAN_POINT ( 'NONE',  ( 1.530808498934191571E-16, 0.000000000000000000, 1.250000000000000000 ) ) ;
#272 = DIRECTION ( 'NONE',  ( -0.000000000000000000, -1.000000000000000000, -0.000000000000000000 ) ) ;
#273 = EDGE_CURVE ( 'NONE', #202, #23, #107, .T. ) ;
#274 = DIRECTION ( 'NONE',  ( 1.000000000000000000, 0.000000000000000000, 0.000000000000000000 ) ) ;
#275 = CARTESIAN_POINT ( 'NONE',  ( 0.000000000000000000, 0.000000000000000000, 0.000000000000000000 ) ) ;
#276 = PRODUCT ( 'ZEPHYR-X1000 - END CAP', 'ZEPHYR-X1000 - END CAP', '', ( #326 ) ) ;
#277 = CIRCLE ( 'NONE', #132, 3.169763870759772395 ) ;
#278 = CARTESIAN_POINT ( 'NONE',  ( 1.597308480188627922, 0.000000000000000000, 0.4826761002705776127 ) ) ;
#279 =( CONVERSION_BASED_UNIT ( 'INCH', #165 ) LENGTH_UNIT ( ) NAMED_UNIT ( #173 ) );
#280 = ORIENTED_EDGE ( 'NONE', *, *, #225, .F. ) ;
#281 = CIRCLE ( 'NONE', #378, 2.000000000000000000 ) ;
#282 = CARTESIAN_POINT ( 'NONE',  ( 1.530808498934191571E-16, 0.1249999999999997641, 1.250000000000000000 ) ) ;
#283 = ADVANCED_FACE ( 'NONE', ( #78 ), #12, .T. ) ;
#284 = ADVANCED_FACE ( 'NONE', ( #166 ), #203, .F. ) ;
#285 = DIRECTION ( 'NONE',  ( 0.000000000000000000, 1.000000000000000000, 0.000000000000000000 ) ) ;
#286 = CARTESIAN_POINT ( 'NONE',  ( 2.449293598294706414E-16, 0.1249999999999997641, 2.000000000000000000 ) ) ;
#287 = ORIENTED_EDGE ( 'NONE', *, *, #266, .T. ) ;
#288 = VECTOR ( 'NONE', #383, 39.37007874015748143 ) ;
#289 = CARTESIAN_POINT ( 'NONE',  ( 0.000000000000000000, 0.4999999999999997780, 0.000000000000000000 ) ) ;
#290 = EDGE_LOOP ( 'NONE', ( #287, #297, #51, #174 ) ) ;
#291 = CARTESIAN_POINT ( 'NONE',  ( 3.881841178378879370E-16, 0.000000000000000000, 3.169763870759772395 ) ) ;
#292 = ORIENTED_EDGE ( 'NONE', *, *, #204, .F. ) ;
#293 = DIRECTION ( 'NONE',  ( 0.000000000000000000, 0.000000000000000000, -1.000000000000000000 ) ) ;
#294 = ORIENTED_EDGE ( 'NONE', *, *, #215, .T. ) ;
#295 = AXIS2_PLACEMENT_3D ( 'NONE', #111, #17, #260 ) ;
#296 = ADVANCED_BREP_SHAPE_REPRESENTATION ( 'ZEPHYR-X1000 - END CAP', ( #128, #249 ), #239 ) ;
#297 = ORIENTED_EDGE ( 'NONE', *, *, #10, .T. ) ;
#298 = SURFACE_STYLE_USAGE ( .BOTH. , #357 ) ;
#299 = CARTESIAN_POINT ( 'NONE',  ( 0.000000000000000000, 0.4999999999999997780, -1.250000000000000000 ) ) ;
#300 = CARTESIAN_POINT ( 'NONE',  ( 1.597308480188627922, -0.5000000000000000000, -0.4826761002705776127 ) ) ;
#301 = AXIS2_PLACEMENT_3D ( 'NONE', #289, #21, #263 ) ;
#302 = VECTOR ( 'NONE', #242, 39.37007874015748143 ) ;
#303 = CYLINDRICAL_SURFACE ( 'NONE', #335, 0.4826761002705776127 ) ;
#304 = ADVANCED_FACE ( 'NONE', ( #81, #320 ), #108, .T. ) ;
#305 = ORIENTED_EDGE ( 'NONE', *, *, #180, .T. ) ;
#306 = FILL_AREA_STYLE ('',( #190 ) ) ;
#307 = CIRCLE ( 'NONE', #295, 3.169763870759772395 ) ;
#308 = DIRECTION ( 'NONE',  ( -0.000000000000000000, -1.000000000000000000, -0.000000000000000000 ) ) ;
#309 = CARTESIAN_POINT ( 'NONE',  ( 0.000000000000000000, 0.4999999999999997780, -3.169763870759772395 ) ) ;
#310 = CARTESIAN_POINT ( 'NONE',  ( 0.000000000000000000, 0.000000000000000000, 0.000000000000000000 ) ) ;
#311 = ADVANCED_FACE ( 'NONE', ( #230 ), #171, .T. ) ;
#312 = LINE ( 'NONE', #44, #66 ) ;
#313 = CARTESIAN_POINT ( 'NONE',  ( 2.449293598294706414E-16, 0.000000000000000000, 2.000000000000000000 ) ) ;
#314 = ORIENTED_EDGE ( 'NONE', *, *, #104, .T. ) ;
#315 = UNCERTAINTY_MEASURE_WITH_UNIT (LENGTH_MEASURE( 1.000000000000000082E-05 ), #384, 'distance_accuracy_value', 'NONE');
#316 = ORIENTED_EDGE ( 'NONE', *, *, #90, .T. ) ;
#317 = AXIS2_PLACEMENT_3D ( 'NONE', #275, #358, #359 ) ;
#318 = DIRECTION ( 'NONE',  ( 0.000000000000000000, -1.000000000000000000, 0.000000000000000000 ) ) ;
#319 = EDGE_LOOP ( 'NONE', ( #356, #206 ) ) ;
#320 = FACE_OUTER_BOUND ( 'NONE', #353, .T. ) ;
#321 = ORIENTED_EDGE ( 'NONE', *, *, #160, .F. ) ;
#322 =( CONVERSION_BASED_UNIT ( 'INCH', #24 ) LENGTH_UNIT ( ) NAMED_UNIT ( #140 ) );
#323 = ORIENTED_EDGE ( 'NONE', *, *, #179, .T. ) ;
#324 = EDGE_CURVE ( 'NONE', #251, #53, #159, .T. ) ;
#325 = AXIS2_PLACEMENT_3D ( 'NONE', #332, #252, #368 ) ;
#326 = PRODUCT_CONTEXT ( 'NONE', #342, 'mechanical' ) ;
#327 = CARTESIAN_POINT ( 'NONE',  ( 1.597308480188627922, -0.5000000000000000000, 0.000000000000000000 ) ) ;
#328 = DIRECTION ( 'NONE',  ( 0.000000000000000000, 0.000000000000000000, -1.000000000000000000 ) ) ;
#329 = CARTESIAN_POINT ( 'NONE',  ( 0.000000000000000000, 0.000000000000000000, -2.000000000000000000 ) ) ;
#330 = ORIENTED_EDGE ( 'NONE', *, *, #273, .T. ) ;
#331 = EDGE_LOOP ( 'NONE', ( #316, #294 ) ) ;
#332 = CARTESIAN_POINT ( 'NONE',  ( 0.000000000000000000, 0.1249999999999997641, 0.000000000000000000 ) ) ;
#333 = ADVANCED_FACE ( 'NONE', ( #71 ), #49, .T. ) ;
#334 = CIRCLE ( 'NONE', #164, 1.250000000000000000 ) ;
#335 = AXIS2_PLACEMENT_3D ( 'NONE', #327, #58, #389 ) ;
#336 = CARTESIAN_POINT ( 'NONE',  ( 0.000000000000000000, 0.1249999999999997641, 0.000000000000000000 ) ) ;
#337 = SURFACE_STYLE_FILL_AREA ( #306 ) ;
#338 = EDGE_CURVE ( 'NONE', #376, #351, #136, .T. ) ;
#339 = CARTESIAN_POINT ( 'NONE',  ( 0.000000000000000000, 0.4999999999999997780, 0.000000000000000000 ) ) ;
#340 =( GEOMETRIC_REPRESENTATION_CONTEXT ( 3 ) GLOBAL_UNCERTAINTY_ASSIGNED_CONTEXT ( ( #373 ) ) GLOBAL_UNIT_ASSIGNED_CONTEXT ( ( #279, #193, #253 ) ) REPRESENTATION_CONTEXT ( 'NONE', 'WORKASPACE' ) );
#341 = DIRECTION ( 'NONE',  ( -0.000000000000000000, -1.000000000000000000, -0.000000000000000000 ) ) ;
#342 = APPLICATION_CONTEXT ( 'automotive_design' ) ;
#343 = DIRECTION ( 'NONE',  ( 0.000000000000000000, 0.000000000000000000, -1.000000000000000000 ) ) ;
#344 = ORIENTED_EDGE ( 'NONE', *, *, #204, .T. ) ;
#345 = LINE ( 'NONE', #47, #98 ) ;
#346 = ORIENTED_EDGE ( 'NONE', *, *, #90, .F. ) ;
#347 = FACE_OUTER_BOUND ( 'NONE', #18, .T. ) ;
#348 = ORIENTED_EDGE ( 'NONE', *, *, #87, .T. ) ;
#349 = VECTOR ( 'NONE', #187, 39.37007874015748143 ) ;
#350 = DIRECTION ( 'NONE',  ( 0.000000000000000000, 0.000000000000000000, -1.000000000000000000 ) ) ;
#351 = VERTEX_POINT ( 'NONE', #286 ) ;
#352 = EDGE_CURVE ( 'NONE', #34, #76, #386, .T. ) ;
#353 = EDGE_LOOP ( 'NONE', ( #74, #20 ) ) ;
#354 = DIRECTION ( 'NONE',  ( 0.000000000000000000, 0.000000000000000000, -1.000000000000000000 ) ) ;
#355 = MECHANICAL_DESIGN_GEOMETRIC_PRESENTATION_REPRESENTATION (  '', ( #207 ), #340 ) ;
#356 = ORIENTED_EDGE ( 'NONE', *, *, #163, .F. ) ;
#357 = SURFACE_SIDE_STYLE ('',( #154 ) ) ;
#358 = DIRECTION ( 'NONE',  ( -0.000000000000000000, -1.000000000000000000, -0.000000000000000000 ) ) ;
#359 = DIRECTION ( 'NONE',  ( 0.000000000000000000, 0.000000000000000000, -1.000000000000000000 ) ) ;
#360 = AXIS2_PLACEMENT_3D ( 'NONE', #101, #135, #106 ) ;
#361 = CARTESIAN_POINT ( 'NONE',  ( 0.000000000000000000, 0.1249999999999997641, 0.000000000000000000 ) ) ;
#362 = EDGE_CURVE ( 'NONE', #133, #144, #345, .T. ) ;
#363 = DIRECTION ( 'NONE',  ( 0.000000000000000000, -1.000000000000000000, 0.000000000000000000 ) ) ;
#364 = SURFACE_SIDE_STYLE ('',( #337 ) ) ;
#365 = DIRECTION ( 'NONE',  ( -0.000000000000000000, -1.000000000000000000, -0.000000000000000000 ) ) ;
#366 = ORIENTED_EDGE ( 'NONE', *, *, #105, .T. ) ;
#367 = EDGE_CURVE ( 'NONE', #144, #264, #307, .T. ) ;
#368 = DIRECTION ( 'NONE',  ( 0.000000000000000000, 0.000000000000000000, -1.000000000000000000 ) ) ;
#369 = DIRECTION ( 'NONE',  ( 0.000000000000000000, 0.000000000000000000, -1.000000000000000000 ) ) ;
#370 = COLOUR_RGB ( '',0.7921568627450980005, 0.8196078431372548767, 0.9333333333333333481 ) ;
#371 = DIRECTION ( 'NONE',  ( 0.000000000000000000, 0.000000000000000000, 1.000000000000000000 ) ) ;
#372 = DIRECTION ( 'NONE',  ( 0.000000000000000000, 0.000000000000000000, -1.000000000000000000 ) ) ;
#373 = UNCERTAINTY_MEASURE_WITH_UNIT (LENGTH_MEASURE( 1.000000000000000082E-05 ), #279, 'distance_accuracy_value', 'NONE');
#374 = VERTEX_POINT ( 'NONE', #377 ) ;
#375 = CARTESIAN_POINT ( 'NONE',  ( 1.597308480188627922, -0.5000000000000000000, 0.000000000000000000 ) ) ;
#376 = VERTEX_POINT ( 'NONE', #234 ) ;
#377 = CARTESIAN_POINT ( 'NONE',  ( 0.000000000000000000, 0.1249999999999997641, -1.250000000000000000 ) ) ;
#378 = AXIS2_PLACEMENT_3D ( 'NONE', #129, #158, #222 ) ;
#379 = ORIENTED_EDGE ( 'NONE', *, *, #10, .F. ) ;
#380 = ORIENTED_EDGE ( 'NONE', *, *, #338, .F. ) ;
#381 = DIRECTION ( 'NONE',  ( 0.000000000000000000, -1.000000000000000000, -0.000000000000000000 ) ) ;
#382 = ORIENTED_EDGE ( 'NONE', *, *, #63, .F. ) ;
#383 = DIRECTION ( 'NONE',  ( -0.000000000000000000, -1.000000000000000000, -0.000000000000000000 ) ) ;
#384 =( CONVERSION_BASED_UNIT ( 'INCH', #55 ) LENGTH_UNIT ( ) NAMED_UNIT ( #229 ) );
#385 = FACE_OUTER_BOUND ( 'NONE', #183, .T. ) ;
#386 = CIRCLE ( 'NONE', #29, 0.4826761002705776127 ) ;
#387 = CIRCLE ( 'NONE', #170, 1.250000000000000000 ) ;
#388 = CARTESIAN_POINT ( 'NONE',  ( 0.000000000000000000, 0.000000000000000000, 0.000000000000000000 ) ) ;
#389 = DIRECTION ( 'NONE',  ( 0.000000000000000000, 0.000000000000000000, 1.000000000000000000 ) ) ;
ENDSEC;
END-ISO-10303-21;
